<svg xmlns="http://www.w3.org/2000/svg" width="62" height="62" viewBox="0 0 62 62"><ellipse cx="31" cy="31" rx="31" ry="31" fill="#1cefef"/><path d="M19.5,0a19.5,19.5,0,0,0-6.167,38c.975.171,1.341-.414,1.341-.926,0-.463-.024-2-.024-3.632-4.9.9-6.167-1.194-6.557-2.291a7.091,7.091,0,0,0-2-2.754c-.683-.366-1.657-1.267-.024-1.292,1.536-.024,2.632,1.414,3,2a4.168,4.168,0,0,0,5.679,1.609A4.1,4.1,0,0,1,15.99,28.1c-4.339-.488-8.872-2.169-8.872-9.628a7.589,7.589,0,0,1,2-5.241,7.007,7.007,0,0,1,.2-5.167s1.633-.512,5.363,2a18.385,18.385,0,0,1,9.75,0c3.729-2.535,5.363-2,5.363-2a7.007,7.007,0,0,1,.195,5.167,7.545,7.545,0,0,1,2,5.241c0,7.483-4.558,9.141-8.9,9.628A4.618,4.618,0,0,1,24.4,31.712c0,2.608-.024,4.7-.024,5.363,0,.512.366,1.121,1.341.926A19.51,19.51,0,0,0,19.5,0Z" transform="translate(11.412 11.862)" fill="#3a3034" fill-rule="evenodd"/></svg>