<?xml version="1.0" encoding="utf-8"?>
<!-- Generator: Adobe Illustrator 22.0.0, SVG Export Plug-In . SVG Version: 6.00 Build 0)  -->
<svg version="1.1" id="Layer_1" xmlns="http://www.w3.org/2000/svg" xmlns:xlink="http://www.w3.org/1999/xlink" x="0px" y="0px"
	 viewBox="0 0 62 62" style="enable-background:new 0 0 62 62;" xml:space="preserve">
<style type="text/css">
	.st0{fill:#974982;}
	.st1{fill:#FFFFFF;}
</style>
<ellipse class="st0" cx="31" cy="31" rx="31" ry="31"/>
<path class="st1" d="M30.9,11.9c-10.8,0-19.5,8.7-19.5,19.5c0,8.4,5.4,15.8,13.3,18.5c1,0.2,1.3-0.4,1.3-0.9c0-0.5,0-2,0-3.6
	c-4.9,0.9-6.2-1.2-6.6-2.3c-0.4-1.1-1.1-2-2-2.8c-0.7-0.4-1.7-1.3,0-1.3c1.5,0,2.6,1.4,3,2c1.1,2,3.7,2.7,5.7,1.6c0,0,0,0,0,0
	c0.1-1,0.5-1.9,1.2-2.6c-4.3-0.5-8.9-2.2-8.9-9.6c0-1.9,0.7-3.8,2-5.2c-0.6-1.7-0.5-3.5,0.2-5.2c0,0,1.6-0.5,5.4,2
	c3.2-0.9,6.6-0.9,9.8,0c3.7-2.5,5.4-2,5.4-2c0.7,1.6,0.8,3.5,0.2,5.2c1.3,1.4,2,3.3,2,5.2c0,7.5-4.6,9.1-8.9,9.6
	c0.9,1,1.4,2.3,1.3,3.6c0,2.6,0,4.7,0,5.4c0,0.5,0.4,1.1,1.3,0.9c10.2-3.4,15.7-14.5,12.3-24.7C46.7,17.2,39.3,11.9,30.9,11.9z"/>
</svg>
