<?xml version="1.0" encoding="utf-8"?>
<!-- Generator: Adobe Illustrator 22.0.0, SVG Export Plug-In . SVG Version: 6.00 Build 0)  -->
<svg version="1.1" id="Layer_1" xmlns="http://www.w3.org/2000/svg" xmlns:xlink="http://www.w3.org/1999/xlink" x="0px" y="0px"
	 viewBox="0 0 77.3 77.3" style="enable-background:new 0 0 77.3 77.3;" xml:space="preserve">
<style type="text/css">
	.st0{fill:#1CEFEF;}
</style>
<title>home-blue</title>
<g id="Layer_2_1_">
	<g id="Layer_1-2">
		<polygon class="st0" points="54.9,18 54.9,23.7 48.9,19 48.9,18 		"/>
		<path class="st0" d="M62.4,32.3c-0.2,0.2-0.5,0.4-0.8,0.4c-0.2,0-0.4-0.1-0.6-0.2l-1.4-1.1v26.3c0,0.6-0.4,1-1,1h-14v-18h-12v18
			h-14c-0.6,0-1-0.4-1-1V31.4l-1.4,1.1c-0.4,0.3-1.1,0.3-1.4-0.2c-0.3-0.4-0.3-1.1,0.2-1.4l23-18c0.4-0.3,0.9-0.3,1.2,0l23,18
			C62.7,31.2,62.8,31.8,62.4,32.3C62.4,32.3,62.4,32.3,62.4,32.3z"/>
	</g>
</g>
</svg>
