<svg xmlns="http://www.w3.org/2000/svg" width="62" height="62" viewBox="0 0 62 62"><ellipse cx="31" cy="31" rx="31" ry="31" fill="#1cefef"/><path d="M837,633.073a2.2,2.2,0,0,1,1.694.773,2.686,2.686,0,0,1,.7,1.863V667.1a2.605,2.605,0,0,1-.7,1.842,2.191,2.191,0,0,1-1.657.755H809.706a2.184,2.184,0,0,1-1.657-.755,2.6,2.6,0,0,1-.7-1.842V635.709a2.682,2.682,0,0,1,.7-1.863,2.2,2.2,0,0,1,1.694-.773H837Zm-20.366,11.07a3.224,3.224,0,0,0,0-4.1,2.5,2.5,0,0,0-1.952-.815,2.561,2.561,0,0,0-1.97.815,2.906,2.906,0,0,0-.755,2.051,2.943,2.943,0,0,0,.737,2.051,2.456,2.456,0,0,0,1.915.816h.037A2.539,2.539,0,0,0,816.63,644.143Zm.442,3.078h-4.825v16.534h4.825Zm17.42,7.032a8.748,8.748,0,0,0-1.584-5.608,4.875,4.875,0,0,0-3.977-1.8,4.682,4.682,0,0,0-2.909.921,6.258,6.258,0,0,0-1.436,1.8v-2.344H819.76q.036.962,0,8.832v7.7h4.825V654.5a4.641,4.641,0,0,1,.147-1.339,3.347,3.347,0,0,1,.884-1.38,2.268,2.268,0,0,1,1.62-.629,2.051,2.051,0,0,1,1.878,1.046,5.418,5.418,0,0,1,.552,2.68v8.873h4.824Z" transform="translate(-792.594 -619.947)" fill="#3a3034"/></svg>