<?xml version="1.0" encoding="utf-8"?>
<!-- Generator: Adobe Illustrator 22.0.0, SVG Export Plug-In . SVG Version: 6.00 Build 0)  -->
<svg version="1.1" id="Layer_1" xmlns="http://www.w3.org/2000/svg" xmlns:xlink="http://www.w3.org/1999/xlink" x="0px" y="0px"
	 viewBox="0 0 62 62" style="enable-background:new 0 0 62 62;" xml:space="preserve">
<style type="text/css">
	.st0{fill:#ffffff;}
	.st1{fill:#7f3d6e;}
</style>
<ellipse class="st0" cx="31" cy="31" rx="31" ry="31"/>
<path class="st1" d="M44.4,13.1c0.7,0,1.3,0.3,1.7,0.8c0.5,0.5,0.7,1.2,0.7,1.9v31.4c0,0.7-0.2,1.3-0.7,1.8c-0.4,0.5-1,0.8-1.7,0.8
	H17.1c-0.6,0-1.2-0.3-1.7-0.8c-0.5-0.5-0.7-1.2-0.7-1.8V15.8c0-0.7,0.2-1.4,0.7-1.9c0.4-0.5,1-0.8,1.7-0.8H44.4z M24,24.2
	c1-1.2,1-2.9,0-4.1c-0.5-0.5-1.2-0.8-2-0.8c-0.7,0-1.5,0.3-2,0.8c-0.5,0.6-0.8,1.3-0.8,2.1c0,0.8,0.2,1.5,0.7,2.1
	c0.5,0.5,1.2,0.8,1.9,0.8h0C22.8,25,23.5,24.7,24,24.2L24,24.2z M24.5,27.3h-4.8v16.5h4.8V27.3z M41.9,34.3c0.1-2-0.4-4-1.6-5.6
	c-1-1.2-2.4-1.9-4-1.8c-1,0-2.1,0.3-2.9,0.9c-0.6,0.5-1.1,1.1-1.4,1.8v-2.3h-4.8c0,0.6,0,3.6,0,8.8v7.7H32v-9.3c0-0.5,0-0.9,0.1-1.3
	c0.2-0.5,0.5-1,0.9-1.4c0.4-0.4,1-0.6,1.6-0.6c0.8,0,1.5,0.4,1.9,1c0.4,0.8,0.6,1.8,0.6,2.7v8.9h4.8L41.9,34.3z"/>
</svg>
