<svg id="Circles" xmlns="http://www.w3.org/2000/svg" viewBox="0 0 3000 3000">
  <title>triangle-circles</title>
  <g id="circleGroup">
    <g id="top">
      <path d="M1275,1214.77,1500,825l225,389.77C1859.52,1137,1950,991.55,1950,825c0-248.53-201.47-450-450-450s-450,201.47-450,450C1050,991.55,1140.48,1137,1275,1214.77Z"/>
    </g>
    <g id="bottomLeft">
      <path d="M945.72,1785A448,448,0,0,0,721,1725c-248.53,0-450,201.47-450,450s201.47,450,450,450,450-201.47,450-450H720.58Z"/>
    </g>
    <g id="bottomRight">
      <path d="M2279,1725a448,448,0,0,0-224.72,60l225.14,390H1829c0,248.53,201.47,450,450,450s450-201.47,450-450S2527.53,1725,2279,1725Z"/>
    </g>
  </g>
</svg>
