<svg xmlns="http://www.w3.org/2000/svg" width="62" height="62" viewBox="0 0 62 62"><ellipse cx="31" cy="31" rx="31" ry="31" fill="#1cefef"/><path d="M986.456,1148.828v1.031a23.3,23.3,0,0,1-1.479,8.067,24.044,24.044,0,0,1-4.392,7.35,21.787,21.787,0,0,1-7.171,5.379,23.393,23.393,0,0,1-9.815,2.062,22.952,22.952,0,0,1-6.543-.941,22.252,22.252,0,0,1-5.826-2.644q.941.091,1.927.09a16,16,0,0,0,5.333-.9,16.718,16.718,0,0,0,4.661-2.51,8.047,8.047,0,0,1-4.661-1.636,7.762,7.762,0,0,1-2.823-3.967,8,8,0,0,0,1.479.135,8.305,8.305,0,0,0,2.106-.269,7.779,7.779,0,0,1-3.272-1.5,7.988,7.988,0,0,1-2.308-2.824,8.39,8.39,0,0,1-.874-3.563v-.134a7.547,7.547,0,0,0,3.675,1.031,8.106,8.106,0,0,1-2.622-2.891,7.876,7.876,0,0,1-.964-3.832,8,8,0,0,1,1.076-4.034,22.981,22.981,0,0,0,16.583,8.425,9.31,9.31,0,0,1-.179-1.838,7.84,7.84,0,0,1,1.076-4.033,8.122,8.122,0,0,1,2.936-2.936,7.757,7.757,0,0,1,4.011-1.1,7.978,7.978,0,0,1,5.871,2.556,15.65,15.65,0,0,0,5.109-1.972A7.789,7.789,0,0,1,988,1144.01a8.275,8.275,0,0,1-2.174,1.9,16.352,16.352,0,0,0,4.661-1.3A16.851,16.851,0,0,1,986.456,1148.828Z" transform="translate(-938.269 -1123.736)" fill="#3a3034"/></svg>