<?xml version="1.0" encoding="utf-8"?>
<!-- Generator: Adobe Illustrator 22.0.0, SVG Export Plug-In . SVG Version: 6.00 Build 0)  -->
<svg version="1.1" id="Layer_1" xmlns="http://www.w3.org/2000/svg" xmlns:xlink="http://www.w3.org/1999/xlink" x="0px" y="0px"
	 viewBox="0 0 62 62" style="enable-background:new 0 0 62 62;" xml:space="preserve">
<style type="text/css">
	.st0{fill:#EB3484;}
	.st1{fill:#FFFFFF;}
</style>
<ellipse class="st0" cx="31" cy="31" rx="31" ry="31"/>
<path class="st1" d="M48.2,25.1v1c0,2.8-0.5,5.5-1.5,8.1c-1,2.7-2.5,5.2-4.4,7.3c-2,2.3-4.4,4.1-7.2,5.4c-3.1,1.4-6.4,2.1-9.8,2.1
	c-2.2,0-4.4-0.3-6.5-0.9c-2.1-0.6-4-1.5-5.8-2.6c0.6,0.1,1.3,0.1,1.9,0.1c1.8,0,3.6-0.3,5.3-0.9c1.7-0.6,3.3-1.4,4.7-2.5
	c-1.7,0-3.3-0.6-4.7-1.6c-1.3-1-2.3-2.4-2.8-4c0.5,0.1,1,0.1,1.5,0.1c0.7,0,1.4-0.1,2.1-0.3c-1.2-0.2-2.3-0.8-3.3-1.5
	c-1-0.8-1.8-1.7-2.3-2.8c-0.6-1.1-0.8-2.3-0.9-3.6v-0.1c1.1,0.7,2.4,1,3.7,1c-1.1-0.7-2-1.7-2.6-2.9c-0.6-1.2-1-2.5-1-3.8
	c0-1.4,0.4-2.8,1.1-4c4.1,5,10.1,8.1,16.6,8.4c-0.1-0.6-0.2-1.2-0.2-1.8c0-1.4,0.4-2.8,1.1-4c0.7-1.2,1.7-2.2,2.9-2.9
	c1.2-0.7,2.6-1.1,4-1.1c2.2,0,4.4,0.9,5.9,2.6c1.8-0.4,3.5-1,5.1-2c-0.3,0.9-0.8,1.8-1.4,2.6c-0.6,0.8-1.3,1.4-2.2,1.9
	c1.6-0.2,3.2-0.6,4.7-1.3C51.1,22.5,49.8,23.9,48.2,25.1z"/>
</svg>
