<svg xmlns="http://www.w3.org/2000/svg" viewBox="0 0 77.28 77.28"><defs><style>.cls-1{fill:#3a3034;}.cls-2{fill:#1cefef;}</style></defs><title>home-blue</title><g id="Layer_2" data-name="Layer 2"><g id="Layer_1-2" data-name="Layer 1"><circle class="cls-1" cx="38.64" cy="38.64" r="38.64"/><polygon class="cls-2" points="54.64 18.64 54.64 24.37 48.64 19.69 48.64 18.64 54.64 18.64"/><path class="cls-2" d="M62.43,32.26a1,1,0,0,1-.79.38,1,1,0,0,1-.62-.21l-1.38-1.08V57.64a1,1,0,0,1-1,1h-14v-18h-12v18h-14a1,1,0,0,1-1-1V31.35l-1.38,1.08A1,1,0,1,1,15,30.85l23-18a1,1,0,0,1,1.24,0l23,18A1,1,0,0,1,62.43,32.26Z"/></g></g></svg>