<?xml version="1.0" encoding="utf-8"?>
<!-- Generator: Adobe Illustrator 22.0.0, SVG Export Plug-In . SVG Version: 6.00 Build 0)  -->
<svg version="1.1" xmlns="http://www.w3.org/2000/svg" xmlns:xlink="http://www.w3.org/1999/xlink" x="0px" y="0px"
	 viewBox="0 0 150.1 150.1" style="enable-background:new 0 0 150.1 150.1;" xml:space="preserve">
<style type="text/css">
	.st0{fill:#3A3034;}
	.st1{fill:#1CEFEF;}
</style>
<g id="Layer_2">
	<circle class="st0" cx="75" cy="75" r="38.6"/>
</g>
<g id="Layer_1">
	<polygon class="st1" points="91,55 91,60.8 85,56.1 85,55 	"/>
	<path class="st1" d="M98.8,68.7C98.6,68.9,98.3,69,98,69c-0.2,0-0.4-0.1-0.6-0.2L96,67.8V94c0,0.6-0.4,1-1,1H81V77H69v18H55
		c-0.5,0-1-0.4-1-1V67.8l-1.4,1.1c-0.4,0.3-1.1,0.3-1.4-0.2c-0.3-0.4-0.3-1.1,0.2-1.4l23-18c0.4-0.3,0.9-0.3,1.2,0l23,18
		C99.1,67.6,99.2,68.2,98.8,68.7z"/>
</g>
</svg>
